<mxfile host="app.diagrams.net" agent="Mozilla/5.0 (Windows NT 10.0; Win64; x64) AppleWebKit/537.36 (KHTML, like Gecko) Chrome/136.0.0.0 Safari/537.36" version="27.0.5">
  <diagram name="第 1 页" id="OfFDXcEh4mvgwOR_4sZM">
    <mxGraphModel dx="3284" dy="1823" grid="1" gridSize="10" guides="1" tooltips="1" connect="1" arrows="1" fold="1" page="1" pageScale="1" pageWidth="827" pageHeight="1169" math="0" shadow="0">
      <root>
        <mxCell id="0" />
        <mxCell id="1" parent="0" />
        <mxCell id="ZkD1P1Wt4bG5LlNcU552-23" style="edgeStyle=orthogonalEdgeStyle;rounded=0;orthogonalLoop=1;jettySize=auto;html=1;exitX=0.5;exitY=1;exitDx=0;exitDy=0;labelBackgroundColor=none;fontColor=default;" parent="1" source="jzol34q8vQIkxrYHAkH4-21" target="wrpRZbD9yLnscSps5DgX-5" edge="1">
          <mxGeometry relative="1" as="geometry" />
        </mxCell>
        <mxCell id="ZkD1P1Wt4bG5LlNcU552-22" style="edgeStyle=orthogonalEdgeStyle;rounded=0;orthogonalLoop=1;jettySize=auto;html=1;exitX=0.5;exitY=1;exitDx=0;exitDy=0;entryX=0.5;entryY=0;entryDx=0;entryDy=0;labelBackgroundColor=none;fontColor=default;" parent="1" source="wrpRZbD9yLnscSps5DgX-1" target="ZkD1P1Wt4bG5LlNcU552-5" edge="1">
          <mxGeometry relative="1" as="geometry" />
        </mxCell>
        <mxCell id="ZkD1P1Wt4bG5LlNcU552-24" style="edgeStyle=orthogonalEdgeStyle;rounded=0;orthogonalLoop=1;jettySize=auto;html=1;exitX=0.5;exitY=1;exitDx=0;exitDy=0;entryX=0.5;entryY=0;entryDx=0;entryDy=0;labelBackgroundColor=none;fontColor=default;" parent="1" source="wrpRZbD9yLnscSps5DgX-5" target="ZkD1P1Wt4bG5LlNcU552-4" edge="1">
          <mxGeometry relative="1" as="geometry" />
        </mxCell>
        <mxCell id="wrpRZbD9yLnscSps5DgX-5" value="输入新菜品详细信息" style="rounded=1;whiteSpace=wrap;html=1;fontSize=17;fontFamily=黑体;labelBackgroundColor=none;" parent="1" vertex="1">
          <mxGeometry x="-46" y="790" width="120" height="50" as="geometry" />
        </mxCell>
        <mxCell id="ZkD1P1Wt4bG5LlNcU552-37" style="edgeStyle=orthogonalEdgeStyle;rounded=0;orthogonalLoop=1;jettySize=auto;html=1;exitX=0.5;exitY=1;exitDx=0;exitDy=0;labelBackgroundColor=none;fontColor=default;" parent="1" source="ZkD1P1Wt4bG5LlNcU552-4" target="ZkD1P1Wt4bG5LlNcU552-36" edge="1">
          <mxGeometry relative="1" as="geometry" />
        </mxCell>
        <mxCell id="ZkD1P1Wt4bG5LlNcU552-4" value="提交新增" style="rounded=1;whiteSpace=wrap;html=1;fontSize=17;fontFamily=黑体;labelBackgroundColor=none;" parent="1" vertex="1">
          <mxGeometry x="-46" y="870" width="120" height="50" as="geometry" />
        </mxCell>
        <mxCell id="ZkD1P1Wt4bG5LlNcU552-25" style="edgeStyle=orthogonalEdgeStyle;rounded=0;orthogonalLoop=1;jettySize=auto;html=1;exitX=0.5;exitY=1;exitDx=0;exitDy=0;labelBackgroundColor=none;fontColor=default;" parent="1" source="ZkD1P1Wt4bG5LlNcU552-5" target="ZkD1P1Wt4bG5LlNcU552-6" edge="1">
          <mxGeometry relative="1" as="geometry" />
        </mxCell>
        <mxCell id="ZkD1P1Wt4bG5LlNcU552-5" value="选择菜品" style="rounded=1;whiteSpace=wrap;html=1;fontSize=17;fontFamily=黑体;labelBackgroundColor=none;" parent="1" vertex="1">
          <mxGeometry x="120" y="790" width="120" height="50" as="geometry" />
        </mxCell>
        <mxCell id="ZkD1P1Wt4bG5LlNcU552-26" style="edgeStyle=orthogonalEdgeStyle;rounded=0;orthogonalLoop=1;jettySize=auto;html=1;exitX=0.5;exitY=1;exitDx=0;exitDy=0;entryX=0.5;entryY=0;entryDx=0;entryDy=0;labelBackgroundColor=none;fontColor=default;" parent="1" source="ZkD1P1Wt4bG5LlNcU552-6" target="ZkD1P1Wt4bG5LlNcU552-7" edge="1">
          <mxGeometry relative="1" as="geometry" />
        </mxCell>
        <mxCell id="ZkD1P1Wt4bG5LlNcU552-6" value="修改菜品信息" style="rounded=1;whiteSpace=wrap;html=1;fontSize=17;fontFamily=黑体;labelBackgroundColor=none;" parent="1" vertex="1">
          <mxGeometry x="120" y="870" width="120" height="50" as="geometry" />
        </mxCell>
        <mxCell id="ZkD1P1Wt4bG5LlNcU552-7" value="提交修改" style="rounded=1;whiteSpace=wrap;html=1;fontSize=17;fontFamily=黑体;labelBackgroundColor=none;" parent="1" vertex="1">
          <mxGeometry x="120" y="983" width="120" height="46" as="geometry" />
        </mxCell>
        <mxCell id="ZkD1P1Wt4bG5LlNcU552-16" style="edgeStyle=orthogonalEdgeStyle;rounded=0;orthogonalLoop=1;jettySize=auto;html=1;exitX=0.5;exitY=1;exitDx=0;exitDy=0;labelBackgroundColor=none;fontColor=default;" parent="1" source="ZkD1P1Wt4bG5LlNcU552-8" target="ZkD1P1Wt4bG5LlNcU552-14" edge="1">
          <mxGeometry relative="1" as="geometry" />
        </mxCell>
        <mxCell id="ZkD1P1Wt4bG5LlNcU552-8" value="选择菜品" style="rounded=1;whiteSpace=wrap;html=1;fontSize=17;fontFamily=黑体;labelBackgroundColor=none;" parent="1" vertex="1">
          <mxGeometry x="280" y="630" width="120" height="50" as="geometry" />
        </mxCell>
        <mxCell id="ZkD1P1Wt4bG5LlNcU552-80" style="edgeStyle=orthogonalEdgeStyle;rounded=0;orthogonalLoop=1;jettySize=auto;html=1;exitX=0.5;exitY=1;exitDx=0;exitDy=0;labelBackgroundColor=none;fontColor=default;" parent="1" source="ZkD1P1Wt4bG5LlNcU552-14" target="ZkD1P1Wt4bG5LlNcU552-15" edge="1">
          <mxGeometry relative="1" as="geometry" />
        </mxCell>
        <mxCell id="ZkD1P1Wt4bG5LlNcU552-14" value="显示当前库存" style="rounded=1;whiteSpace=wrap;html=1;fontSize=17;fontFamily=黑体;labelBackgroundColor=none;" parent="1" vertex="1">
          <mxGeometry x="520" y="720" width="120" height="50" as="geometry" />
        </mxCell>
        <mxCell id="ZkD1P1Wt4bG5LlNcU552-81" style="edgeStyle=orthogonalEdgeStyle;rounded=0;orthogonalLoop=1;jettySize=auto;html=1;entryX=0.5;entryY=0;entryDx=0;entryDy=0;labelBackgroundColor=none;fontColor=default;" parent="1" source="ZkD1P1Wt4bG5LlNcU552-15" target="ZkD1P1Wt4bG5LlNcU552-18" edge="1">
          <mxGeometry relative="1" as="geometry" />
        </mxCell>
        <mxCell id="ZkD1P1Wt4bG5LlNcU552-82" style="edgeStyle=orthogonalEdgeStyle;rounded=0;orthogonalLoop=1;jettySize=auto;html=1;entryX=1;entryY=0.5;entryDx=0;entryDy=0;labelBackgroundColor=none;fontColor=default;" parent="1" source="ZkD1P1Wt4bG5LlNcU552-15" target="ZkD1P1Wt4bG5LlNcU552-1" edge="1">
          <mxGeometry relative="1" as="geometry">
            <Array as="points">
              <mxPoint x="440" y="865" />
              <mxPoint x="440" y="335" />
            </Array>
          </mxGeometry>
        </mxCell>
        <mxCell id="ZkD1P1Wt4bG5LlNcU552-15" value="" style="rhombus;whiteSpace=wrap;html=1;labelBackgroundColor=none;" parent="1" vertex="1">
          <mxGeometry x="315" y="830" width="50" height="50" as="geometry" />
        </mxCell>
        <mxCell id="ZkD1P1Wt4bG5LlNcU552-18" value="修改库存" style="rounded=1;whiteSpace=wrap;html=1;fontSize=17;fontFamily=黑体;labelBackgroundColor=none;" parent="1" vertex="1">
          <mxGeometry x="280" y="900" width="120" height="50" as="geometry" />
        </mxCell>
        <mxCell id="ZkD1P1Wt4bG5LlNcU552-40" style="edgeStyle=orthogonalEdgeStyle;rounded=0;orthogonalLoop=1;jettySize=auto;html=1;exitX=0.75;exitY=0.5;exitDx=0;exitDy=0;exitPerimeter=0;entryX=0.5;entryY=0;entryDx=0;entryDy=0;labelBackgroundColor=none;fontColor=default;" parent="1" source="ZkD1P1Wt4bG5LlNcU552-30" target="ZkD1P1Wt4bG5LlNcU552-35" edge="1">
          <mxGeometry relative="1" as="geometry" />
        </mxCell>
        <mxCell id="ZkD1P1Wt4bG5LlNcU552-41" style="edgeStyle=orthogonalEdgeStyle;rounded=0;orthogonalLoop=1;jettySize=auto;html=1;exitX=0.25;exitY=0.5;exitDx=0;exitDy=0;exitPerimeter=0;entryX=0.5;entryY=0;entryDx=0;entryDy=0;labelBackgroundColor=none;fontColor=default;" parent="1" source="ZkD1P1Wt4bG5LlNcU552-30" target="ZkD1P1Wt4bG5LlNcU552-34" edge="1">
          <mxGeometry relative="1" as="geometry" />
        </mxCell>
        <mxCell id="ZkD1P1Wt4bG5LlNcU552-30" value="" style="shape=line;html=1;strokeWidth=6;labelBackgroundColor=none;" parent="1" vertex="1">
          <mxGeometry x="870" y="1021" width="319" height="10" as="geometry" />
        </mxCell>
        <mxCell id="ZkD1P1Wt4bG5LlNcU552-34" value="保存菜品数据" style="rounded=1;whiteSpace=wrap;html=1;fontFamily=黑体;fontSize=17;labelBackgroundColor=none;" parent="1" vertex="1">
          <mxGeometry x="889" y="1059" width="120" height="49" as="geometry" />
        </mxCell>
        <mxCell id="ZkD1P1Wt4bG5LlNcU552-35" value="更新在线菜单" style="rounded=1;whiteSpace=wrap;html=1;fontSize=17;fontFamily=黑体;labelBackgroundColor=none;" parent="1" vertex="1">
          <mxGeometry x="1049" y="1059" width="120" height="49" as="geometry" />
        </mxCell>
        <mxCell id="ZkD1P1Wt4bG5LlNcU552-44" style="edgeStyle=orthogonalEdgeStyle;rounded=0;orthogonalLoop=1;jettySize=auto;html=1;exitX=0.25;exitY=0.5;exitDx=0;exitDy=0;exitPerimeter=0;labelBackgroundColor=none;fontColor=default;" parent="1" source="ZkD1P1Wt4bG5LlNcU552-36" target="ZkD1P1Wt4bG5LlNcU552-42" edge="1">
          <mxGeometry relative="1" as="geometry" />
        </mxCell>
        <mxCell id="ZkD1P1Wt4bG5LlNcU552-45" style="edgeStyle=orthogonalEdgeStyle;rounded=0;orthogonalLoop=1;jettySize=auto;html=1;exitX=0.75;exitY=0.5;exitDx=0;exitDy=0;exitPerimeter=0;entryX=0.5;entryY=0;entryDx=0;entryDy=0;labelBackgroundColor=none;fontColor=default;" parent="1" source="ZkD1P1Wt4bG5LlNcU552-36" target="ZkD1P1Wt4bG5LlNcU552-43" edge="1">
          <mxGeometry relative="1" as="geometry">
            <mxPoint x="710" y="1090" as="targetPoint" />
          </mxGeometry>
        </mxCell>
        <mxCell id="ZkD1P1Wt4bG5LlNcU552-36" value="" style="shape=line;html=1;strokeWidth=6;labelBackgroundColor=none;" parent="1" vertex="1">
          <mxGeometry x="520" y="980" width="280" height="10" as="geometry" />
        </mxCell>
        <mxCell id="ZkD1P1Wt4bG5LlNcU552-42" value="保存菜品数据" style="rounded=1;whiteSpace=wrap;html=1;fontSize=17;fontFamily=黑体;labelBackgroundColor=none;" parent="1" vertex="1">
          <mxGeometry x="530" y="1021" width="120" height="51" as="geometry" />
        </mxCell>
        <mxCell id="ZkD1P1Wt4bG5LlNcU552-43" value="更新在线菜单" style="rounded=1;whiteSpace=wrap;html=1;fontSize=17;fontFamily=黑体;labelBackgroundColor=none;" parent="1" vertex="1">
          <mxGeometry x="670" y="1021" width="120" height="51" as="geometry" />
        </mxCell>
        <mxCell id="ZkD1P1Wt4bG5LlNcU552-50" style="edgeStyle=orthogonalEdgeStyle;rounded=0;orthogonalLoop=1;jettySize=auto;html=1;entryX=0.5;entryY=0;entryDx=0;entryDy=0;exitX=0.498;exitY=0.212;exitDx=0;exitDy=0;exitPerimeter=0;labelBackgroundColor=none;fontColor=default;" parent="1" source="ZkD1P1Wt4bG5LlNcU552-46" target="ZkD1P1Wt4bG5LlNcU552-49" edge="1">
          <mxGeometry relative="1" as="geometry" />
        </mxCell>
        <mxCell id="ZkD1P1Wt4bG5LlNcU552-46" value="" style="shape=line;html=1;strokeWidth=6;labelBackgroundColor=none;" parent="1" vertex="1">
          <mxGeometry x="520" y="1101" width="280" height="10" as="geometry" />
        </mxCell>
        <mxCell id="ZkD1P1Wt4bG5LlNcU552-47" style="edgeStyle=orthogonalEdgeStyle;rounded=0;orthogonalLoop=1;jettySize=auto;html=1;exitX=0.5;exitY=1;exitDx=0;exitDy=0;entryX=0.25;entryY=0.5;entryDx=0;entryDy=0;entryPerimeter=0;labelBackgroundColor=none;fontColor=default;" parent="1" source="ZkD1P1Wt4bG5LlNcU552-42" target="ZkD1P1Wt4bG5LlNcU552-46" edge="1">
          <mxGeometry relative="1" as="geometry" />
        </mxCell>
        <mxCell id="ZkD1P1Wt4bG5LlNcU552-48" style="edgeStyle=orthogonalEdgeStyle;rounded=0;orthogonalLoop=1;jettySize=auto;html=1;exitX=0.5;exitY=1;exitDx=0;exitDy=0;entryX=0.75;entryY=0.5;entryDx=0;entryDy=0;entryPerimeter=0;labelBackgroundColor=none;fontColor=default;" parent="1" source="ZkD1P1Wt4bG5LlNcU552-43" target="ZkD1P1Wt4bG5LlNcU552-46" edge="1">
          <mxGeometry relative="1" as="geometry">
            <mxPoint x="710" y="1101" as="sourcePoint" />
          </mxGeometry>
        </mxCell>
        <mxCell id="ZkD1P1Wt4bG5LlNcU552-49" value="提示：新增菜品完成" style="rounded=1;whiteSpace=wrap;html=1;fontSize=17;fontFamily=黑体;labelBackgroundColor=none;" parent="1" vertex="1">
          <mxGeometry x="600" y="1130" width="120" height="50" as="geometry" />
        </mxCell>
        <mxCell id="ZkD1P1Wt4bG5LlNcU552-51" value="提示：库存更新&lt;span style=&quot;background-color: transparent; color: light-dark(rgb(0, 0, 0), rgb(255, 255, 255));&quot;&gt;完成&lt;/span&gt;" style="rounded=1;whiteSpace=wrap;html=1;fontSize=17;fontFamily=黑体;labelBackgroundColor=none;" parent="1" vertex="1">
          <mxGeometry x="969.5" y="1178" width="120" height="50" as="geometry" />
        </mxCell>
        <mxCell id="ZkD1P1Wt4bG5LlNcU552-77" style="edgeStyle=orthogonalEdgeStyle;rounded=0;orthogonalLoop=1;jettySize=auto;html=1;entryX=0.5;entryY=0;entryDx=0;entryDy=0;labelBackgroundColor=none;fontColor=default;" parent="1" source="jzol34q8vQIkxrYHAkH4-4" target="ZkD1P1Wt4bG5LlNcU552-1" edge="1">
          <mxGeometry relative="1" as="geometry" />
        </mxCell>
        <mxCell id="jzol34q8vQIkxrYHAkH4-4" value="&lt;font style=&quot;vertical-align: inherit;&quot;&gt;&lt;font style=&quot;vertical-align: inherit; font-size: 16px;&quot;&gt;进入后台管理系统&lt;/font&gt;&lt;/font&gt;" style="html=1;align=center;verticalAlign=middle;rounded=1;absoluteArcSize=1;arcSize=10;dashed=0;whiteSpace=wrap;labelBackgroundColor=none;" parent="1" vertex="1">
          <mxGeometry x="150" y="230" width="140" height="50" as="geometry" />
        </mxCell>
        <mxCell id="ZkD1P1Wt4bG5LlNcU552-1" value="" style="rhombus;whiteSpace=wrap;html=1;labelBackgroundColor=none;" parent="1" vertex="1">
          <mxGeometry x="195" y="310" width="50" height="50" as="geometry" />
        </mxCell>
        <mxCell id="ZkD1P1Wt4bG5LlNcU552-73" style="edgeStyle=orthogonalEdgeStyle;rounded=0;orthogonalLoop=1;jettySize=auto;html=1;exitX=0.5;exitY=1;exitDx=0;exitDy=0;labelBackgroundColor=none;fontColor=default;" parent="1" source="jzol34q8vQIkxrYHAkH4-8" target="jzol34q8vQIkxrYHAkH4-11" edge="1">
          <mxGeometry relative="1" as="geometry" />
        </mxCell>
        <mxCell id="jzol34q8vQIkxrYHAkH4-8" value="&lt;font face=&quot;黑体&quot; style=&quot;font-size: 17px;&quot;&gt;选择管理功能&lt;/font&gt;" style="rounded=1;whiteSpace=wrap;html=1;labelBackgroundColor=none;" parent="1" vertex="1">
          <mxGeometry x="160" y="390" width="120" height="50" as="geometry" />
        </mxCell>
        <mxCell id="ZkD1P1Wt4bG5LlNcU552-2" style="edgeStyle=orthogonalEdgeStyle;rounded=0;orthogonalLoop=1;jettySize=auto;html=1;entryX=0.5;entryY=0;entryDx=0;entryDy=0;labelBackgroundColor=none;fontColor=default;" parent="1" source="ZkD1P1Wt4bG5LlNcU552-1" target="jzol34q8vQIkxrYHAkH4-8" edge="1">
          <mxGeometry relative="1" as="geometry" />
        </mxCell>
        <mxCell id="jzol34q8vQIkxrYHAkH4-11" value="" style="rhombus;whiteSpace=wrap;html=1;labelBackgroundColor=none;" parent="1" vertex="1">
          <mxGeometry x="195" y="470" width="50" height="50" as="geometry" />
        </mxCell>
        <mxCell id="jzol34q8vQIkxrYHAkH4-13" value="&lt;font style=&quot;vertical-align: inherit;&quot;&gt;&lt;font face=&quot;黑体&quot; style=&quot;vertical-align: inherit; font-size: 17px;&quot;&gt;菜品管理&lt;/font&gt;&lt;/font&gt;" style="rounded=1;whiteSpace=wrap;html=1;labelBackgroundColor=none;" parent="1" vertex="1">
          <mxGeometry x="39.5" y="550" width="120" height="50" as="geometry" />
        </mxCell>
        <mxCell id="jzol34q8vQIkxrYHAkH4-16" style="rounded=0;orthogonalLoop=1;jettySize=auto;html=1;exitX=0.5;exitY=1;exitDx=0;exitDy=0;entryX=0.606;entryY=-0.024;entryDx=0;entryDy=0;entryPerimeter=0;labelBackgroundColor=none;fontColor=default;" parent="1" source="jzol34q8vQIkxrYHAkH4-11" target="jzol34q8vQIkxrYHAkH4-13" edge="1">
          <mxGeometry relative="1" as="geometry" />
        </mxCell>
        <mxCell id="ZkD1P1Wt4bG5LlNcU552-78" style="edgeStyle=orthogonalEdgeStyle;rounded=0;orthogonalLoop=1;jettySize=auto;html=1;entryX=0.5;entryY=0;entryDx=0;entryDy=0;labelBackgroundColor=none;fontColor=default;" parent="1" source="jzol34q8vQIkxrYHAkH4-14" target="ZkD1P1Wt4bG5LlNcU552-8" edge="1">
          <mxGeometry relative="1" as="geometry" />
        </mxCell>
        <mxCell id="jzol34q8vQIkxrYHAkH4-14" value="&lt;font style=&quot;vertical-align: inherit;&quot;&gt;&lt;font style=&quot;vertical-align: inherit;&quot;&gt;&lt;font style=&quot;vertical-align: inherit;&quot;&gt;&lt;font face=&quot;黑体&quot; style=&quot;vertical-align: inherit; font-size: 17px;&quot;&gt;库存管理&lt;/font&gt;&lt;/font&gt;&lt;/font&gt;&lt;/font&gt;" style="rounded=1;whiteSpace=wrap;html=1;labelBackgroundColor=none;" parent="1" vertex="1">
          <mxGeometry x="280" y="550" width="120" height="50" as="geometry" />
        </mxCell>
        <mxCell id="jzol34q8vQIkxrYHAkH4-17" style="rounded=0;orthogonalLoop=1;jettySize=auto;html=1;exitX=0.5;exitY=1;exitDx=0;exitDy=0;entryX=0.5;entryY=0;entryDx=0;entryDy=0;labelBackgroundColor=none;fontColor=default;" parent="1" source="jzol34q8vQIkxrYHAkH4-11" target="jzol34q8vQIkxrYHAkH4-14" edge="1">
          <mxGeometry relative="1" as="geometry" />
        </mxCell>
        <mxCell id="jzol34q8vQIkxrYHAkH4-19" value="" style="rhombus;whiteSpace=wrap;html=1;labelBackgroundColor=none;" parent="1" vertex="1">
          <mxGeometry x="74.5" y="630" width="50" height="50" as="geometry" />
        </mxCell>
        <mxCell id="jzol34q8vQIkxrYHAkH4-20" style="edgeStyle=orthogonalEdgeStyle;rounded=0;orthogonalLoop=1;jettySize=auto;html=1;entryX=0.5;entryY=0;entryDx=0;entryDy=0;labelBackgroundColor=none;fontColor=default;" parent="1" source="jzol34q8vQIkxrYHAkH4-13" target="jzol34q8vQIkxrYHAkH4-19" edge="1">
          <mxGeometry relative="1" as="geometry" />
        </mxCell>
        <mxCell id="wrpRZbD9yLnscSps5DgX-3" style="rounded=0;orthogonalLoop=1;jettySize=auto;html=1;entryX=0.5;entryY=0;entryDx=0;entryDy=0;exitX=0.5;exitY=1;exitDx=0;exitDy=0;labelBackgroundColor=none;fontColor=default;" parent="1" source="jzol34q8vQIkxrYHAkH4-19" target="jzol34q8vQIkxrYHAkH4-21" edge="1">
          <mxGeometry relative="1" as="geometry">
            <mxPoint x="60" y="720" as="targetPoint" />
          </mxGeometry>
        </mxCell>
        <mxCell id="wrpRZbD9yLnscSps5DgX-1" value="编辑&lt;span style=&quot;background-color: transparent; color: light-dark(rgb(0, 0, 0), rgb(255, 255, 255));&quot;&gt;菜品&lt;/span&gt;" style="rounded=1;whiteSpace=wrap;html=1;fontSize=17;fontFamily=黑体;labelBackgroundColor=none;" parent="1" vertex="1">
          <mxGeometry x="120" y="710" width="120" height="50" as="geometry" />
        </mxCell>
        <mxCell id="wrpRZbD9yLnscSps5DgX-2" style="rounded=0;orthogonalLoop=1;jettySize=auto;html=1;exitX=0.5;exitY=1;exitDx=0;exitDy=0;entryX=0.5;entryY=0;entryDx=0;entryDy=0;labelBackgroundColor=none;fontColor=default;" parent="1" source="jzol34q8vQIkxrYHAkH4-19" target="wrpRZbD9yLnscSps5DgX-1" edge="1">
          <mxGeometry relative="1" as="geometry" />
        </mxCell>
        <mxCell id="jzol34q8vQIkxrYHAkH4-21" value="&lt;font style=&quot;font-size: 17px;&quot; face=&quot;黑体&quot;&gt;新增菜品&lt;/font&gt;" style="rounded=1;whiteSpace=wrap;html=1;labelBackgroundColor=none;" parent="1" vertex="1">
          <mxGeometry x="-45.5" y="710" width="120" height="50" as="geometry" />
        </mxCell>
        <mxCell id="ZkD1P1Wt4bG5LlNcU552-75" style="edgeStyle=orthogonalEdgeStyle;rounded=0;orthogonalLoop=1;jettySize=auto;html=1;labelBackgroundColor=none;fontColor=default;" parent="1" source="ZkD1P1Wt4bG5LlNcU552-74" target="jzol34q8vQIkxrYHAkH4-4" edge="1">
          <mxGeometry relative="1" as="geometry" />
        </mxCell>
        <mxCell id="ZkD1P1Wt4bG5LlNcU552-74" value="" style="ellipse;html=1;labelBackgroundColor=none;" parent="1" vertex="1">
          <mxGeometry x="200" y="160" width="40" height="40" as="geometry" />
        </mxCell>
        <mxCell id="ZkD1P1Wt4bG5LlNcU552-83" style="edgeStyle=orthogonalEdgeStyle;rounded=0;orthogonalLoop=1;jettySize=auto;html=1;labelBackgroundColor=none;fontColor=default;" parent="1" source="ZkD1P1Wt4bG5LlNcU552-7" edge="1">
          <mxGeometry relative="1" as="geometry">
            <mxPoint x="1030" y="1020" as="targetPoint" />
            <Array as="points">
              <mxPoint x="1030" y="1006" />
            </Array>
          </mxGeometry>
        </mxCell>
        <mxCell id="ZkD1P1Wt4bG5LlNcU552-88" style="edgeStyle=orthogonalEdgeStyle;rounded=0;orthogonalLoop=1;jettySize=auto;html=1;entryX=0.5;entryY=0;entryDx=0;entryDy=0;exitX=0.501;exitY=0.537;exitDx=0;exitDy=0;exitPerimeter=0;labelBackgroundColor=none;fontColor=default;" parent="1" source="ZkD1P1Wt4bG5LlNcU552-84" target="ZkD1P1Wt4bG5LlNcU552-51" edge="1">
          <mxGeometry relative="1" as="geometry" />
        </mxCell>
        <mxCell id="ZkD1P1Wt4bG5LlNcU552-84" value="" style="shape=line;html=1;strokeWidth=6;labelBackgroundColor=none;" parent="1" vertex="1">
          <mxGeometry x="870" y="1137" width="319" height="21" as="geometry" />
        </mxCell>
        <mxCell id="ZkD1P1Wt4bG5LlNcU552-86" style="edgeStyle=orthogonalEdgeStyle;rounded=0;orthogonalLoop=1;jettySize=auto;html=1;entryX=0.75;entryY=0.5;entryDx=0;entryDy=0;entryPerimeter=0;labelBackgroundColor=none;fontColor=default;" parent="1" source="ZkD1P1Wt4bG5LlNcU552-35" target="ZkD1P1Wt4bG5LlNcU552-84" edge="1">
          <mxGeometry relative="1" as="geometry" />
        </mxCell>
        <mxCell id="ZkD1P1Wt4bG5LlNcU552-87" style="edgeStyle=orthogonalEdgeStyle;rounded=0;orthogonalLoop=1;jettySize=auto;html=1;exitX=0.5;exitY=1;exitDx=0;exitDy=0;entryX=0.25;entryY=0.5;entryDx=0;entryDy=0;entryPerimeter=0;labelBackgroundColor=none;fontColor=default;" parent="1" source="ZkD1P1Wt4bG5LlNcU552-34" target="ZkD1P1Wt4bG5LlNcU552-84" edge="1">
          <mxGeometry relative="1" as="geometry" />
        </mxCell>
        <mxCell id="GrfXblt5mlEnLoXtTGxq-4" value="" style="endArrow=none;html=1;rounded=0;strokeWidth=3;" edge="1" parent="1">
          <mxGeometry width="50" height="50" relative="1" as="geometry">
            <mxPoint x="-80" y="1240" as="sourcePoint" />
            <mxPoint x="-80" y="120" as="targetPoint" />
          </mxGeometry>
        </mxCell>
        <mxCell id="GrfXblt5mlEnLoXtTGxq-5" value="" style="endArrow=none;html=1;rounded=0;strokeWidth=3;" edge="1" parent="1">
          <mxGeometry width="50" height="50" relative="1" as="geometry">
            <mxPoint x="479.33" y="1240" as="sourcePoint" />
            <mxPoint x="479.33" y="120" as="targetPoint" />
          </mxGeometry>
        </mxCell>
        <mxCell id="GrfXblt5mlEnLoXtTGxq-6" value="" style="endArrow=none;html=1;rounded=0;strokeWidth=3;" edge="1" parent="1">
          <mxGeometry width="50" height="50" relative="1" as="geometry">
            <mxPoint x="1200" y="1240" as="sourcePoint" />
            <mxPoint x="1200" y="120" as="targetPoint" />
          </mxGeometry>
        </mxCell>
        <mxCell id="GrfXblt5mlEnLoXtTGxq-7" value="" style="endArrow=none;html=1;rounded=0;" edge="1" parent="1">
          <mxGeometry width="50" height="50" relative="1" as="geometry">
            <mxPoint x="-80" y="120" as="sourcePoint" />
            <mxPoint x="1200" y="120" as="targetPoint" />
          </mxGeometry>
        </mxCell>
        <mxCell id="GrfXblt5mlEnLoXtTGxq-8" value="管理员" style="rounded=0;whiteSpace=wrap;html=1;fontSize=20;fontFamily=黑体;fontStyle=1;fillColor=#E6E6E6;" vertex="1" parent="1">
          <mxGeometry x="-81" y="80" width="560" height="40" as="geometry" />
        </mxCell>
        <mxCell id="GrfXblt5mlEnLoXtTGxq-9" value="系统" style="rounded=0;whiteSpace=wrap;html=1;fontSize=20;fontFamily=黑体;fontStyle=1;fillColor=#E6E6E6;" vertex="1" parent="1">
          <mxGeometry x="479" y="80" width="721" height="40" as="geometry" />
        </mxCell>
      </root>
    </mxGraphModel>
  </diagram>
</mxfile>
